<?xml version="1.0" encoding="utf-8"?>
<!-- Generator: Adobe Illustrator 18.1.1, SVG Export Plug-In . SVG Version: 6.00 Build 0)  -->
<svg version="1.1" id="Layer_1" xmlns="http://www.w3.org/2000/svg" xmlns:xlink="http://www.w3.org/1999/xlink" x="0px" y="0px"
	 viewBox="0 0 14 21" enable-background="new 0 0 14 21" xml:space="preserve">
<path d="M14,7c0-3.9-3.1-7-7-7S0,3.1,0,7c0,0.7,0.1,1.4,0.3,1.9C1.5,12.1,7,21,7,21s5.4-8.9,6.7-12.1C14,8.3,14,7.7,14,7z M7,4.2
	c1.5,0,2.8,1.3,2.8,2.8c0,0.7-0.3,1.4-0.7,1.9l0,0C8.8,9.1,8.5,9.4,8.2,9.5c0,0,0,0,0,0C8,9.6,7.8,9.7,7.7,9.7c0,0-0.1,0-0.1,0
	C7.4,9.8,7.2,9.8,7,9.8c-0.2,0-0.4,0-0.6-0.1c0,0-0.1,0-0.1,0C6.2,9.7,6,9.6,5.9,9.6c0,0,0,0,0,0C5.5,9.4,5.2,9.1,4.9,8.9
	C4.5,8.4,4.2,7.7,4.2,7C4.2,5.5,5.5,4.2,7,4.2z"/>
</svg>
